<?xml version="1.0" encoding="utf-8"?>
<!-- Generator: Adobe Illustrator 28.0.0, SVG Export Plug-In . SVG Version: 6.00 Build 0)  -->
<svg version="1.1" id="Ebene_1" xmlns="http://www.w3.org/2000/svg" xmlns:xlink="http://www.w3.org/1999/xlink" x="0px" y="0px"
	 viewBox="0 0 1180.4 725.7" style="enable-background:new 0 0 1180.4 725.7;" xml:space="preserve">
<g>
	<path d="M217.7,438c-26.5,0-48,16.9-50.1,39.6h17.8c0.9-12.9,14.5-23.7,31.9-23.7c20.2,0,31.6,11,31.6,27.2c0,3.7-2.3,6.3-7.5,6.3
		h-26.7c-28.6,0-47.1,14.3-47.1,36.8c0,21.6,16.2,35.6,41,35.6c18.3,0,34-8.7,40.3-22.3v20.4h18.7v-76.1
		C267.6,455.5,248.4,438,217.7,438z M248.9,504.7c0,24.4-13.8,39.1-37.5,39.1c-15,0-24.6-7.7-24.6-19.9c0-13.8,11.5-22.3,29.1-22.3
		h33V504.7z"/>
	<rect x="296.2" y="391.3" width="18.7" height="166.6"/>
	<path d="M437,457.2c-7.3-11.2-23.2-19.2-39.1-19.2c-36.8,0-56.9,26.5-56.9,60.9s20.2,60.9,56.9,60.9c17.8,0,33.5-7.3,39.1-18.3
		v20.9c0,15.7-10.8,27.2-26,27.2h-54.6v16.2h55.8c25.5,0,43.6-17.6,43.6-42.6V439.8H437V457.2z M399.5,542.9
		c-23.9,0-39.4-17.3-39.4-44c0-26.7,15.5-44,39.4-44c23.7,0,39.1,17.3,39.1,44C438.6,525.6,423.2,542.9,399.5,542.9z"/>
	<path d="M533.3,438c-26.5,0-48,16.9-50.1,39.6h17.8c0.9-12.9,14.5-23.7,31.9-23.7c20.2,0,31.6,11,31.6,27.2c0,3.7-2.3,6.3-7.5,6.3
		h-26.7c-28.6,0-47.1,14.3-47.1,36.8c0,21.6,16.2,35.6,41,35.6c18.3,0,34-8.7,40.3-22.3v20.4h18.7v-76.1
		C583.2,455.5,564,438,533.3,438z M564.4,504.7c0,24.4-13.8,39.1-37.5,39.1c-15,0-24.6-7.7-24.6-19.9c0-13.8,11.5-22.3,29.1-22.3h33
		V504.7z"/>
	<path d="M668.4,438c-18,0-32.8,8.2-38.9,24.6v-22.7h-18.7v118.1h18.7v-63.7c0-23,14.5-39.1,34.7-39.1c17.8,0,29.5,13.6,29.5,33.7
		v69.1h18.7v-72.2C712.5,457,695.2,438,668.4,438z"/>
	<rect x="742" y="391.3" width="21.6" height="26.2"/>
	<rect x="743.4" y="439.8" width="18.7" height="118.1"/>
	<polygon points="882.1,456.5 882.1,439.8 790.5,439.8 790.5,456.5 860.3,456.5 787.2,541.3 787.2,557.9 885.4,557.9 885.4,541.3 
		809.5,541.3 	"/>
	<path d="M993.6,520c-3.7,14.8-15.9,23.2-35.1,23.2c-22.3,0-38.4-17.3-39.8-41.7h92.3c0.2-1.6,0.5-5.6,0.5-8.2
		c0-31.4-20.6-55.3-55.1-55.3c-34.7,0-56.2,25.5-56.2,60.2c0,33.7,23.4,61.6,58.3,61.6c29.3,0,50.1-15.7,54.1-39.8H993.6z
		 M956.4,453.9c21.1,0,34.4,12.7,35.8,32.6h-72.6C923.1,465.6,936.5,453.9,956.4,453.9z"/>
	<path d="M533.1,348.3c-63.7,6.6-75.5-72.9-134-98.7c-76.9-33.8-146.8,27.2-192.2,106.2l0,0c-5.9,9.6-4.6,21.8,3.6,28.5
		c8.9,7.3,22.5,5.2,30.5-4.7c1.4-1.7,2.4-3.5,3.3-5.4c44.5-72.3,78.9-94.5,118.8-93.2c55.7,1.7,54.3,72.3,134.2,104.1
		c41,16.3,112.1,8.5,154.7-46.4c69.5-89.5,39.6-142.3,120-216.9C584.7,175.3,647.8,336.4,533.1,348.3z"/>
</g>
</svg>
